<svg viewBox="0 0 30 30" xmlns="http://www.w3.org/2000/svg">
    <path fill-rule="evenodd" clip-rule="evenodd" d="M22.166 8.06201C24.4312 6.95232 21.4109 21.0975 20.9834 21.5953C20.8591 22.354 18.6906 21.9099 16.0613 21.3714C15.7717 21.312 15.4765 21.2516 15.1778 21.1915C13.3619 21.02 10.6208 21.2767 9.48001 21.5953C7.75976 20.1815 5.93212 9.07208 7.75976 8.7691C8.5652 8.56737 9.43705 8.69355 10.5706 8.85761C11.7064 9.02199 13.105 9.2244 14.9628 9.17308C17.999 9.08921 21.1467 8.5613 22.166 8.06201ZM15 16C15.5523 16 16 15.5523 16 15C16 14.4477 15.5523 14 15 14C14.4477 14 14 14.4477 14 15C14 15.5523 14.4477 16 15 16Z" />
</svg>
