<svg viewBox="0 0 30 30" xmlns="http://www.w3.org/2000/svg">
    <path fill-rule="evenodd" clip-rule="evenodd" d="M10.0002 12.2354C10.0249 15.5344 11 18.5 13.607 19.8074C14 20 14.0001 20 18 18C18.2563 17.8034 18.5442 17.611 18.8326 17.4182C19.8936 16.7091 20.9625 15.9947 20.5 15.046C20.0544 14.1319 19.2581 13.543 18.4445 12.9414C17.5902 12.3096 16.7169 11.6638 16.2109 10.6128C15.5422 9.22364 15.4581 8.1647 15.3839 7.22948C15.3425 6.70814 15.3042 6.22524 15.1694 5.74503C15.1132 5.54501 15.0857 5.30603 15.0586 5.07005C14.9795 4.38213 14.9033 3.71971 14.1278 4.12242C13.0862 4.66326 9.97335 8.65207 10.0002 12.2354ZM15 16C15.5523 16 16 15.5523 16 15C16 14.4477 15.5523 14 15 14C14.4477 14 14 14.4477 14 15C14 15.5523 14.4477 16 15 16Z" />
</svg>
