<svg viewBox="0 0 30 30" xmlns="http://www.w3.org/2000/svg">
    <path fill-rule="evenodd" clip-rule="evenodd" d="M8.71771 16.3744C8.61374 16.5917 8.51188 16.8047 8.43425 17.1534C8.12702 19.3453 11.3187 20.952 14.3832 21.3041C17.6426 21.6786 22.3042 19.7022 22.1536 18.2544C22.1135 17.8691 22.0128 17.6523 21.907 17.4247C21.8154 17.2275 21.72 17.0223 21.6572 16.6925C21.5385 16.0691 21.6633 15.6068 21.7862 15.1518C21.9171 14.667 22.0457 14.1905 21.8754 13.5362C21.1275 10.6638 18.2673 9.56394 15.2968 9.35265C12.4641 9.15114 9.21865 9.42748 8.50224 12.1654C8.32817 12.8306 8.53762 13.3691 8.74722 13.908C8.95618 14.4453 9.16528 14.9829 8.9947 15.6469C8.9123 15.9676 8.8141 16.1729 8.71771 16.3744ZM15 16C15.5523 16 16 15.5523 16 15C16 14.4477 15.5523 14 15 14C14.4477 14 14 14.4477 14 15C14 15.5523 14.4477 16 15 16Z" />
</svg>
