<svg viewBox="0 0 30 30"xmlns="http://www.w3.org/2000/svg">
    <path opacity="0.97" fill-rule="evenodd" clip-rule="evenodd" d="M12.758 10.3109C13.1578 9.19729 13.4262 8.44979 15.0002 8.00014C17.9246 7.16471 25.0002 21.0001 21.0002 22.5001C19.0735 23.2226 18.7709 22.2051 18.416 21.012C18.0342 19.728 17.5918 18.2408 15.0002 18.5C12.6272 18.7373 11.3325 19.7151 10.3826 20.4325C9.33095 21.2267 8.70184 21.7018 7.5 20.5C6.5 19 8.5 16.5 11 13.5C12.0773 12.2073 12.4553 11.1542 12.758 10.3109ZM15 16C15.5523 16 16 15.5523 16 15C16 14.4477 15.5523 14 15 14C14.4477 14 14 14.4477 14 15C14 15.5523 14.4477 16 15 16Z" />
</svg>
