<svg xmlns="http://www.w3.org/2000/svg" viewBox="0 0 24 24">
    <circle cx="10.018" cy="3.988" r="2.5" fill="none" stroke="currentColor" stroke-linecap="round" stroke-linejoin="round"></circle>
    <line x1="7.174" y1="14.488" x2="13.518" y2="14.488" fill="none" stroke="currentColor" stroke-linecap="round" stroke-linejoin="round"></line>
    <path d="M23.5.5c-1.364,7.045-5.275,12.283-10,12.926" fill="none" stroke="currentColor" stroke-linecap="round" stroke-linejoin="round"></path>
    <line x1="12.5" y1="19.488" x2="12.5" y2="23.488" fill="none" stroke="currentColor" stroke-linecap="round" stroke-linejoin="round"></line>
    <path d="M15.715,10.25A6.666,6.666,0,0,0,18.5,4.838V2.988a1.5,1.5,0,1,0-3,0v1.85a3.651,3.651,0,0,1-3.65,3.651H5.923a2.486,2.486,0,0,1-1.952-.938l-.8-1A1.5,1.5,0,0,0,.829,8.425l.8,1a5.475,5.475,0,0,0,4.3,2.063H7.5V14L2.753,21.164a1.5,1.5,0,1,0,2.5,1.664L8.21,18.387A2,2,0,0,1,9.874,17.5H14A1.5,1.5,0,0,1,15.5,19v1a1.5,1.5,0,0,0,3,0V19A4.505,4.505,0,0,0,14,14.5h-.5V11.263A6.612,6.612,0,0,0,15.715,10.25Z" fill="none" stroke="currentColor" stroke-linecap="round" stroke-linejoin="round"></path>
</svg>