<svg viewBox="0 0 32 30" xmlns="http://www.w3.org/2000/svg">
    <path fill-rule="evenodd" clip-rule="evenodd" d="M8.01361 11.0178C4.93601 11.6129 2.11253 15.8236 1.1149 17.4669C0.860784 17.8933 1.0396 18.4619 1.53842 18.6395C3.09134 19.2258 6.72422 19.2258 14.6111 19.2258C21.7922 19.2258 27.7309 18.7106 30.3756 18.4352C31.0626 18.3641 31.4014 17.6091 30.9685 17.0938C29.2744 15.0951 26.0839 12.0926 25.1616 11.2398C24.9921 11.0799 24.7757 11 24.5404 11H8.22066C8.14537 11 8.07949 11.0089 8.01361 11.0178ZM15 16C15.5523 16 16 15.5523 16 15C16 14.4477 15.5523 14 15 14C14.4477 14 14 14.4477 14 15C14 15.5523 14.4477 16 15 16Z" />
</svg>
