<svg viewBox="0 0 30 30" xmlns="http://www.w3.org/2000/svg">
    <path fill-rule="evenodd" clip-rule="evenodd" d="M13.4747 22.6927L6.14075 12.2355C5.61689 11.495 5.77504 10.4643 6.47681 9.90394L9.41238 7.64238C9.69902 7.43224 10.0351 7.31216 10.381 7.30215L23.3094 6.95191C24.367 6.9319 25.1775 7.88255 24.9996 8.93327L22.746 22.0022C22.6076 22.8128 21.9158 23.4032 21.1053 23.4032H14.8289C14.2951 23.4032 13.791 23.143 13.4747 22.6927ZM17 16C17.5523 16 18 15.5523 18 15C18 14.4477 17.5523 14 17 14C16.4477 14 16 14.4477 16 15C16 15.5523 16.4477 16 17 16Z" />
</svg>
