<svg viewBox="0 0 30 30" xmlns="http://www.w3.org/2000/svg">
    <path fill-rule="evenodd" clip-rule="evenodd" d="M18.7906 19.6492L10.8501 19.6062C9.56634 19.6023 8.54986 18.545 8.55959 17.2612L8.67293 12.2412C8.70979 10.9709 9.75815 9.96318 11.0283 9.98066L18.8938 10.1122C20.1572 10.1364 21.1602 11.1666 21.1505 12.4233L21.1121 17.3548C21.1024 18.625 20.0608 19.6531 18.7906 19.6492ZM15 16C15.5523 16 16 15.5523 16 15C16 14.4477 15.5523 14 15 14C14.4477 14 14 14.4477 14 15C14 15.5523 14.4477 16 15 16Z" />
</svg>
