<svg xmlns="http://www.w3.org/2000/svg">
    <path fill-rule="evenodd" clip-rule="evenodd" d="M24.032 13.2401C24.013 13.6948 23.9974 14.0698 23.9955 14.3361C23.9879 16.3624 23.8706 29.4989 15.4396 29.0307C8.12775 28.6247 7.53103 23.4455 6.84526 17.4933C6.7403 16.5823 6.63324 15.6531 6.49971 14.7202C5.48687 7.68535 6.11823 2.48081 7.4571 1.32047C10.3743 -1.22597 18.9184 0.378838 21.8663 2.21009C24.4256 3.79989 24.1568 10.2464 24.032 13.2401ZM10.0291 8.69144C10.0603 10.1983 12.0971 12.0755 15.3944 12.1292C18.6916 12.1828 20.3523 10.0415 19.1072 7.41382C19.1072 7.41382 17.4996 5.34093 14.5776 5.10426C11.6556 4.86759 10.0047 7.19145 10.0291 8.69144Z" />
</svg>
