<svg viewBox="0 0 30 30" fill="none" xmlns="http://www.w3.org/2000/svg">
    <path fill-rule="evenodd" clip-rule="evenodd" d="M2.26484 11.102C1.61294 10.0791 2.22759 8.72781 3.41963 8.57767C8.8397 7.87387 19.6053 7.98648 23.4329 8.04278C24.2524 8.06155 24.9323 8.68089 25.0254 9.4973C25.1837 10.8204 25.3513 12.96 25.2955 15.5406C25.2303 18.4402 24.6808 21.4525 24.3176 23.1604C24.1221 24.0613 23.2373 24.6149 22.3433 24.4085C20.6856 24.0237 17.5472 22.8789 11.9781 19.5757C6.19485 16.1505 3.49413 13.0538 2.26484 11.102ZM15 16C15.5523 16 16 15.5523 16 15C16 14.4477 15.5523 14 15 14C14.4477 14 14 14.4477 14 15C14 15.5523 14.4477 16 15 16Z" />
</svg>
