<svg width="30" height="30" viewBox="0 0 30 30" fill="none" xmlns="http://www.w3.org/2000/svg">
<path fill-rule="evenodd" clip-rule="evenodd" d="M24.8445 15.6108C25.2637 16.4673 25.096 17.508 24.4159 18.1802C22.5526 20.0497 18.9285 20.9246 16.3851 21.1732C14.8136 21.3245 13.595 21.6421 12.4951 21.9288C11.3846 22.2183 10.3952 22.4762 9.28588 22.4994C7.07787 22.5362 6.36981 20.9154 6.36981 20.9154C5.56859 19.5248 5.9133 17.2869 6.2487 15.8871C6.4723 14.957 6.52819 13.9992 6.44435 13.0507C6.27665 11.0615 6.3046 8.86046 7.46916 8.16055C10.2269 6.49368 23.0464 8.06846 23.7824 8.71311C24.2334 9.10815 24.1806 10.098 24.1215 11.208C24.0841 11.9094 24.0441 12.6587 24.1271 13.3362C24.2389 14.2018 24.5557 15.0122 24.8445 15.6108ZM15 16C15.5523 16 16 15.5523 16 15C16 14.4477 15.5523 14 15 14C14.4477 14 14 14.4477 14 15C14 15.5523 14.4477 16 15 16Z" fill="black"/>
</svg>
