<svg width="30" height="30" viewBox="0 0 30 30" fill="none" xmlns="http://www.w3.org/2000/svg">
<path fill-rule="evenodd" clip-rule="evenodd" d="M21.255 19.299L9.55281 17.6167C9.07855 17.5476 8.70991 17.2102 8.62632 16.7739C8.09974 14.1132 9.01655 11.6664 9.65434 11.2139C10.2185 10.807 17.1368 10.5 19.6718 10.4059C20.2044 10.3858 20.6718 10.7201 20.8 11.1965L22.5611 17.9983C22.7506 18.7315 22.0625 19.4181 21.255 19.299ZM15 16C15.5523 16 16 15.5523 16 15C16 14.4477 15.5523 14 15 14C14.4477 14 14 14.4477 14 15C14 15.5523 14.4477 16 15 16Z" fill="black"/>
</svg>
