<svg viewBox="0 0 30 30" fill="none" xmlns="http://www.w3.org/2000/svg">
    <path fill-rule="evenodd" clip-rule="evenodd" d="M4.00226 18.673L3.40006 10.5945C3.33206 9.76261 3.98284 9.061 4.79873 9.08105L25.3612 9.4519C26.0994 9.46192 26.7016 10.0934 26.7016 10.8651V14.5436C26.7016 14.7741 26.6433 14.9946 26.5462 15.1951L23.7974 20.6576C23.5643 21.1287 23.0981 21.4193 22.5833 21.4193H7.80977C7.56695 21.4193 7.33383 21.3492 7.12986 21.2289L4.69189 19.7856C4.29366 19.5551 4.04112 19.1441 4.00226 18.673ZM15 16C15.5523 16 16 15.5523 16 15C16 14.4477 15.5523 14 15 14C14.4477 14 14 14.4477 14 15C14 15.5523 14.4477 16 15 16Z" />
</svg>
