<svg viewBox="0 0 30 30" xmlns="http://www.w3.org/2000/svg">
    <path fill-rule="evenodd" clip-rule="evenodd" d="M25.1007 19.9372C24.1684 20.0059 15.2261 19.9372 15.2261 19.9372C7.3237 19.9372 6.31846 19.231 4.99599 18.3019C4.89837 18.2333 4.79903 18.1635 4.69505 18.0927C3.17295 17.0724 4.09572 15.0905 6.48352 12.6966C8.8618 10.3027 10.793 9.28232 15.2261 9.00761C19.6592 8.7329 30 15.9833 30 16.5916C30 17.1999 26.033 19.8685 25.1007 19.9372ZM15 16C15.5523 16 16 15.5523 16 15C16 14.4477 15.5523 14 15 14C14.4477 14 14 14.4477 14 15C14 15.5523 14.4477 16 15 16Z" />
</svg>
