<svg viewBox="0 0 30 30" xmlns="http://www.w3.org/2000/svg">
    <path fill-rule="evenodd" clip-rule="evenodd" d="M22.2691 20.7868C12.2616 20.8894 7.8377 18.7427 6.28834 17.6973C5.83036 17.3893 5.63547 16.848 5.78163 16.3346C7.95463 9.09168 18.5663 9.63304 22.0353 10.0157C22.6686 10.0811 23.1461 10.5851 23.1754 11.1918C23.2577 13.0843 23.4345 16.8935 23.5364 19.0903L23.5554 19.4987C23.5846 20.1987 23 20.7774 22.2691 20.7868ZM15 16C15.5523 16 16 15.5523 16 15C16 14.4477 15.5523 14 15 14C14.4477 14 14 14.4477 14 15C14 15.5523 14.4477 16 15 16Z" />
</svg>
