<svg viewBox="0 0 30 30" xmlns="http://www.w3.org/2000/svg">
    <path fill-rule="evenodd" clip-rule="evenodd" d="M1.52564 13.053L1.23619 16.8939C1.21611 17.2065 1.39743 17.4987 1.6964 17.6036C4.62317 18.4929 8.68075 18.7528 13.3419 18.6737C17.5237 18.6004 24.7547 18.3331 26.8733 18.2479C27.2206 18.2348 27.4909 17.9645 27.5109 17.6242L27.8057 13.1094C27.8257 12.7691 27.5888 12.4629 27.2482 12.3995C25.49 12.0966 20.0972 11.2499 14.582 11.5145C9.03906 11.779 3.80235 12.2804 2.1216 12.4431C1.80211 12.4701 1.55266 12.7335 1.52564 13.053ZM15 16C15.5523 16 16 15.5523 16 15C16 14.4477 15.5523 14 15 14C14.4477 14 14 14.4477 14 15C14 15.5523 14.4477 16 15 16Z" />
</svg>
