<svg width="30" height="30" viewBox="0 0 30 30" fill="none" xmlns="http://www.w3.org/2000/svg">
<path fill-rule="evenodd" clip-rule="evenodd" d="M17.1466 4.75276L14.1397 5.08169C13.5825 5.13678 13.1447 5.62282 13.1264 6.18465C13.0402 10.125 10.9065 14.5143 10.4548 15.4028C10.3983 15.5216 10.3552 15.6384 10.3407 15.7648C10.2124 16.7295 9.8443 21.0017 12.7727 23.5421C15.226 25.6629 17.9838 24.9775 19.2575 24.4779C19.6927 24.3028 19.9934 23.8855 19.9943 23.4229C20.0282 19.1037 18.7199 8.88173 18.2869 5.63962C18.2092 5.07824 17.7098 4.68988 17.1466 4.75276ZM13.995 14.7461C13.995 15.2984 14.4427 15.7461 14.995 15.7461C15.5472 15.7461 15.995 15.2984 15.995 14.7461C15.995 14.1938 15.5472 13.7461 14.995 13.7461C14.4427 13.7461 13.995 14.1938 13.995 14.7461Z" fill="black"/>
</svg>
