<svg width="30" height="30" viewBox="0 0 30 30" fill="none" xmlns="http://www.w3.org/2000/svg">
<path fill-rule="evenodd" clip-rule="evenodd" d="M6.31214 11.6696C6.15563 11.254 6.43942 10.7949 6.88695 10.7575C9.48713 10.5613 17.0966 10.0995 18.9529 11.3575C21.2162 12.892 22.7756 15.0079 22.2337 17.4121C21.6918 19.8163 15.4699 21.2458 11.8455 19.4483C9.01415 18.0373 7.03756 13.5513 6.31214 11.6696ZM15 16C15.5523 16 16 15.5523 16 15C16 14.4477 15.5523 14 15 14C14.4477 14 14 14.4477 14 15C14 15.5523 14.4477 16 15 16Z" fill="black"/>
</svg>
